# File created by Blade
# Date/Time:  Wed Jan 21 15:55:51 2015
# Frame Rate: 120.000 fps
#------------------------------------------------------
:FULLY-SPECIFIED
:DEGREES
823
root 23.694624 15.804740 -13.314304 -173.127113 15.097756 -204.330433
Spine 23.192604 -10.823252 50.371171
Head 13.717982 18.145768 21.439253
LeftShoulder -7.958716 -46.627263 45.356013
LeftArm 7.663255 4.415766 11.908187
LeftForeArm 22.239179 -0.000000 -3.483043
LeftHand -9.960812 -0.000000 11.976374
LeftHandThumb1 -26.253704 0.000000 33.147579
RightShoulder -8.884387 4.739335 -3.462977
RightArm 14.048573 46.327892 60.934058
RightForeArm -16.034511 -0.000000 60.418318
RightHand -17.256580 -0.000000 -72.418091
RightHandThumb1 -24.326973 -0.000000 -32.862282
LeftUpLeg 1.962967 35.052907 35.086121
LeftLeg -1.096380 -0.000000 0.000000
LeftFoot -2.949168 16.779956 -26.635444
LeftToeBase 42.417871 -0.000000 -0.000000
RightUpLeg -108.647745 -18.032619 -8.143461
RightLeg 131.751488 -0.000000 -0.000000
RightFoot -66.522977 -35.773536 34.877775
RightToeBase 21.822360 -0.000000 -0.000000
824
root 23.694232 15.822517 -13.311953 -172.878211 15.274358 -204.248320
Spine 23.303263 -10.776821 50.258572
Head 13.851368 17.794456 21.163993
LeftShoulder -7.842104 -46.263532 44.754358
LeftArm 6.664601 4.743676 11.395770
LeftForeArm 22.361886 -0.000000 -3.436818
LeftHand -10.224818 -0.000000 11.694194
LeftHandThumb1 -26.253704 0.000000 33.147579
RightShoulder -8.749639 4.993902 -3.345270
RightArm 14.209004 46.331978 60.895611
RightForeArm -16.093864 0.000000 60.076182
RightHand -17.266387 -0.000000 -72.368411
RightHandThumb1 -24.326973 -0.000000 -32.862282
LeftUpLeg 1.935017 35.205511 35.068631
LeftLeg -1.204795 -0.000000 0.000000
LeftFoot -2.974818 16.904826 -26.735651
LeftToeBase 42.272550 -0.000000 -0.000000
RightUpLeg -108.865238 -17.922362 -7.973104
RightLeg 131.649729 -0.000000 -0.000000
RightFoot -66.490503 -35.751235 34.822619
RightToeBase 21.763279 -0.000000 -0.000000
825
root 23.694913 15.838510 -13.306967 -172.603782 15.447394 -204.134855
Spine 23.372864 -10.716618 50.158388
Head 14.121839 17.508672 20.977385
LeftShoulder -7.630437 -45.900691 44.146915
LeftArm 5.601176 5.098381 10.844069
LeftForeArm 22.275544 -0.000000 -3.409918
LeftHand -10.374013 -0.000000 11.729529
LeftHandThumb1 -26.253704 0.000000 33.147579
RightShoulder -8.594727 5.134730 -3.232258
RightArm 14.456713 46.352724 60.928686
RightForeArm -16.093536 -0.000000 59.683127
RightHand -17.239925 -0.000000 -72.315164
RightHandThumb1 -24.326973 -0.000000 -32.862282
LeftUpLeg 1.873222 35.386525 35.077055
LeftLeg -1.283338 -0.000000 0.000000
LeftFoot -2.998902 16.987033 -26.797312
LeftToeBase 42.153121 -0.000000 -0.000000
RightUpLeg -109.099759 -17.801258 -7.760146
RightLeg 131.546642 -0.000000 -0.000000
RightFoot -66.440896 -35.707258 34.766032
RightToeBase 21.851200 -0.000000 -0.000000
826
root 23.694393 15.850970 -13.302273 -172.352211 15.610085 -204.050294
Spine 23.445001 -10.680791 50.003482
Head 14.360258 17.142676 20.752501
LeftShoulder -7.465649 -45.410027 43.491238
LeftArm 4.637900 5.261585 10.351149
LeftForeArm 22.320451 0.000000 -3.433179
LeftHand -10.317823 -0.000000 11.698706
LeftHandThumb1 -26.253704 0.000000 33.147579
RightShoulder -8.477105 5.137955 -3.109022
RightArm 14.933533 46.357415 61.150668
RightForeArm -16.085265 -0.000000 59.238365
RightHand -17.246955 -0.000000 -72.295237
RightHandThumb1 -24.326973 -0.000000 -32.862282
LeftUpLeg 1.817946 35.540708 35.064682
LeftLeg -1.361200 -0.000000 0.000000
LeftFoot -3.033939 17.075599 -26.896100
LeftToeBase 42.052591 -0.000000 -0.000000
RightUpLeg -109.344295 -17.702454 -7.583607
RightLeg 131.463379 -0.000000 -0.000000
RightFoot -66.403129 -35.685302 34.696192
RightToeBase 21.902544 -0.000000 -0.000000
827
root 23.693809 15.863924 -13.297901 -172.085527 15.809406 -203.937623
Spine 23.535215 -10.632832 49.865256
Head 14.639729 16.896254 20.551666
LeftShoulder -7.290460 -45.054864 42.892863
LeftArm 3.642043 5.459095 9.778856
LeftForeArm 22.145043 0.000000 -3.463681
LeftHand -10.381661 -0.000000 11.690211
LeftHandThumb1 -26.253704 0.000000 33.147579
RightShoulder -8.294848 5.325476 -3.042963
RightArm 15.034560 46.259570 61.100439
RightForeArm -16.024626 -0.000000 58.803612
RightHand -17.175218 -0.000000 -72.270322
RightHandThumb1 -24.326973 -0.000000 -32.862282
LeftUpLeg 1.797744 35.712055 35.092335
LeftLeg -1.451984 -0.000000 0.000000
LeftFoot -3.071229 17.176922 -27.019149
LeftToeBase 41.946609 -0.000000 -0.000000
RightUpLeg -109.594799 -17.554088 -7.376520
RightLeg 131.366190 -0.000000 -0.000000
RightFoot -66.345058 -35.634948 34.648156
RightToeBase 21.999489 -0.000000 -0.000000
828
root 23.690419 15.874474 -13.293736 -171.856459 15.982210 -203.863448
Spine 23.625387 -10.604077 49.672310
Head 14.893478 16.585879 20.343096
LeftShoulder -7.090719 -44.755867 42.259679
LeftArm 2.667820 5.537374 9.263727
LeftForeArm 21.979678 0.000000 -3.483519
LeftHand -10.371030 -0.000000 11.505633
LeftHandThumb1 -26.253704 0.000000 33.147579
RightShoulder -8.131701 5.422376 -2.930433
RightArm 15.300969 46.224117 61.175353
RightForeArm -15.991512 0.000000 58.367990
RightHand -17.143821 -0.000000 -72.235160
RightHandThumb1 -24.326973 -0.000000 -32.862282
LeftUpLeg 1.772385 35.850459 35.082860
LeftLeg -1.531807 -0.000000 0.000000
LeftFoot -3.122678 17.283153 -27.129974
LeftToeBase 41.823281 -0.000000 -0.000000
RightUpLeg -109.830836 -17.437013 -7.220451
RightLeg 131.291564 -0.000000 -0.000000
RightFoot -66.311587 -35.560965 34.634708
RightToeBase 21.802469 -0.000000 -0.000000
829
root 23.688681 15.881914 -13.289902 -171.656244 16.156314 -203.777853
Spine 23.761519 -10.588317 49.470429
Head 15.108277 16.271882 20.100426
LeftShoulder -6.959721 -44.397076 41.661178
LeftArm 1.768536 5.451134 8.699611
LeftForeArm 21.544495 -0.000000 -3.582713
LeftHand -10.420730 -0.000000 11.350389
LeftHandThumb1 -26.253704 0.000000 33.147579
RightShoulder -8.019132 5.471920 -2.767226
RightArm 15.755775 46.218211 61.375250
RightForeArm -15.942950 -0.000000 57.915552
RightHand -17.036801 -0.000000 -72.171807
RightHandThumb1 -24.326973 -0.000000 -32.862282
LeftUpLeg 1.791556 35.983644 35.115555
LeftLeg -1.621001 -0.000000 0.000000
LeftFoot -3.163365 17.369021 -27.250827
LeftToeBase 41.719284 -0.000000 -0.000000
RightUpLeg -110.023804 -17.303908 -7.091021
RightLeg 131.223833 -0.000000 -0.000000
RightFoot -66.245415 -35.508215 34.569922
RightToeBase 21.795900 -0.000000 -0.000000
830
root 23.686796 15.890190 -13.285786 -171.449112 16.328007 -203.693813
Spine 23.897057 -10.553761 49.272440
Head 15.285957 15.903343 19.815033
LeftShoulder -6.899722 -44.077892 41.066990
LeftArm 1.000258 5.337400 8.146952
LeftForeArm 20.977616 -0.000000 -3.720954
LeftHand -10.285686 -0.000000 11.440147
LeftHandThumb1 -26.253704 0.000000 33.147579
RightShoulder -7.974518 5.442630 -2.505346
RightArm 16.442939 46.211529 61.639447
RightForeArm -15.865199 0.000000 57.455912
RightHand -16.853927 -0.000000 -72.177852
RightHandThumb1 -24.326973 -0.000000 -32.862282
LeftUpLeg 1.790071 36.154108 35.135104
LeftLeg -1.700814 -0.000000 0.000000
LeftFoot -3.171288 17.456078 -27.291969
LeftToeBase 41.661831 -0.000000 -0.000000
RightUpLeg -110.224860 -17.181879 -6.942259
RightLeg 131.148108 -0.000000 -0.000000
RightFoot -66.187339 -35.494243 34.494037
RightToeBase 21.844921 -0.000000 -0.000000
831
root 23.682643 15.896598 -13.283152 -171.283609 16.488289 -203.621950
Spine 24.042933 -10.556127 49.039783
Head 15.504182 15.562684 19.575547
LeftShoulder -6.702579 -43.751413 40.385705
LeftArm 0.117645 5.135831 7.678566
LeftForeArm 20.668465 -0.000000 -3.739967
LeftHand -10.460673 -0.000000 11.242227
LeftHandThumb1 -26.253704 0.000000 33.147579
RightShoulder -7.959388 5.268717 -2.169072
RightArm 17.455081 46.281925 62.108066
RightForeArm -15.787273 -0.000000 56.958241
RightHand -16.628390 0.000000 -72.170160
RightHandThumb1 -24.326973 -0.000000 -32.862282
LeftUpLeg 1.819636 36.266834 35.166964
LeftLeg -1.771933 -0.000000 0.000000
LeftFoot -3.216035 17.529168 -27.377207
LeftToeBase 41.589015 -0.000000 -0.000000
RightUpLeg -110.399196 -17.081001 -6.809560
RightLeg 131.085322 -0.000000 -0.000000
RightFoot -66.150902 -35.436888 34.461725
RightToeBase 21.935990 -0.000000 -0.000000
832
root 23.677476 15.901062 -13.279964 -171.139708 16.632914 -203.552638
Spine 24.215421 -10.622642 48.767186
Head 15.721785 15.308050 19.350369
LeftShoulder -6.610254 -43.335644 39.730389
LeftArm -0.656924 4.734192 7.235588
LeftForeArm 20.363768 -0.000000 -3.814223
LeftHand -10.536744 -0.000000 11.101929
LeftHandThumb1 -26.253704 0.000000 33.147579
RightShoulder -7.998723 5.110618 -1.783158
RightArm 18.723007 46.328199 62.758955
RightForeArm -15.864715 0.000000 56.398676
RightHand -16.477634 -0.000000 -72.153638
RightHandThumb1 -24.326973 -0.000000 -32.862282
LeftUpLeg 1.848730 36.383034 35.203003
LeftLeg -1.831816 -0.000000 0.000000
LeftFoot -3.253924 17.592664 -27.394490
LeftToeBase 41.593473 -0.000000 -0.000000
RightUpLeg -110.561286 -16.994199 -6.678631
RightLeg 131.035872 -0.000000 -0.000000
RightFoot -66.097865 -35.372261 34.388891
RightToeBase 21.792255 -0.000000 -0.000000
833
root 23.672292 15.905351 -13.276985 -171.019969 16.798511 -203.480934
Spine 24.442676 -10.703548 48.472361
Head 15.831184 14.973475 19.018630
LeftShoulder -6.585683 -42.933782 39.104413
LeftArm -1.367510 4.399190 6.776947
LeftForeArm 19.779215 -0.000000 -3.905058
LeftHand -10.511689 -0.000000 11.116798
LeftHandThumb1 -26.253704 0.000000 33.147579
RightShoulder -8.075288 5.108977 -1.391349
RightArm 19.876905 46.240569 63.281901
RightForeArm -15.924033 -0.000000 55.789629
RightHand -16.296629 -0.000000 -72.170459
RightHandThumb1 -24.326973 -0.000000 -32.862282
LeftUpLeg 1.922384 36.530183 35.262455
LeftLeg -1.899683 -0.000000 0.000000
LeftFoot -3.276860 17.649280 -27.431901
LeftToeBase 41.518772 -0.000000 -0.000000
RightUpLeg -110.703900 -16.882448 -6.557050
RightLeg 130.979694 -0.000000 -0.000000
RightFoot -66.051555 -35.333993 34.331648
RightToeBase 21.844264 -0.000000 -0.000000
